<svg width="1439" height="116" viewBox="0 0 1439 116" fill="none" xmlns="http://www.w3.org/2000/svg">
<path d="M0 114.716V14.8389H51.1237C64.2616 14.8389 74.0674 17.2644 80.5412 22.1156C87.015 26.8717 90.2518 33.1497 90.2518 40.9496C90.2518 46.0861 88.8714 50.6043 86.1105 54.5043C83.4449 58.3091 79.6368 61.353 74.6863 63.6359C69.8309 65.8237 64.0236 66.9176 57.2642 66.9176L60.1203 60.0689C67.1653 60.0689 73.3058 61.1628 78.5419 63.3506C83.7781 65.4432 87.8242 68.5346 90.6802 72.6248C93.6315 76.6199 95.1072 81.5187 95.1072 87.321C95.1072 95.977 91.5847 102.731 84.5397 107.582C77.5899 112.338 67.4033 114.716 53.9797 114.716H0ZM27.9895 94.3124H51.6949C56.5502 94.3124 60.2155 93.5039 62.6908 91.8868C65.2612 90.1747 66.5464 87.6064 66.5464 84.182C66.5464 80.7577 65.2612 78.237 62.6908 76.6199C60.2155 74.9078 56.5502 74.0517 51.6949 74.0517H25.9902V54.5043H47.4108C52.1709 54.5043 55.741 53.6958 58.121 52.0787C60.5011 50.4617 61.6911 48.0361 61.6911 44.802C61.6911 41.5679 60.5011 39.1898 58.121 37.6679C55.741 36.0508 52.1709 35.2423 47.4108 35.2423H27.9895V94.3124Z" fill="#021D41"/>
<path d="M154.164 114.716V100.305L152.308 96.738V70.1993C152.308 65.9188 150.975 62.6371 148.309 60.3542C145.739 57.9762 141.597 56.7872 135.885 56.7872C132.172 56.7872 128.412 57.4055 124.604 58.6421C120.796 59.7835 117.559 61.4006 114.893 63.4932L105.754 45.0873C110.133 42.2337 115.369 40.0459 121.462 38.524C127.65 36.9069 133.791 36.0984 139.884 36.0984C152.451 36.0984 162.161 38.9996 169.016 44.802C175.966 50.5092 179.44 59.4982 179.44 71.7688V114.716H154.164ZM131.316 116C125.127 116 119.891 114.954 115.607 112.861C111.323 110.768 108.039 107.915 105.754 104.3C103.564 100.686 102.469 96.6429 102.469 92.1722C102.469 87.4162 103.659 83.326 106.039 79.9016C108.515 76.3821 112.275 73.7187 117.321 71.9114C122.367 70.009 128.888 69.0578 136.885 69.0578H155.164V83.1833H140.598C136.219 83.1833 133.124 83.8967 131.316 85.3235C129.602 86.7503 128.745 88.6527 128.745 91.0307C128.745 93.4088 129.65 95.3112 131.458 96.738C133.267 98.1648 135.743 98.8782 138.884 98.8782C141.835 98.8782 144.501 98.1648 146.881 96.738C149.356 95.2161 151.165 92.9332 152.308 89.8893L156.021 99.877C154.593 105.204 151.784 109.246 147.595 112.005C143.502 114.668 138.075 116 131.316 116Z" fill="#021D41"/>
<path d="M229.674 116C222.629 116 216.203 114.383 210.395 111.149C204.683 107.82 200.113 103.206 196.686 97.3087C193.259 91.3161 191.545 84.182 191.545 75.9065C191.545 67.7261 193.259 60.6872 196.686 54.7897C200.113 48.797 204.683 44.1837 210.395 40.9496C216.203 37.7155 222.629 36.0984 229.674 36.0984C236.338 36.0984 241.955 37.5252 246.525 40.3788C251.19 43.2325 254.712 47.608 257.092 53.5055C259.472 59.403 260.662 66.87 260.662 75.9065C260.662 85.1332 259.52 92.6954 257.235 98.5929C254.95 104.49 251.523 108.866 246.953 111.72C242.383 114.573 236.624 116 229.674 116ZM235.386 94.4551C238.432 94.4551 241.146 93.7417 243.526 92.3149C246.001 90.8881 247.953 88.7954 249.381 86.0369C250.809 83.1833 251.523 79.8065 251.523 75.9065C251.523 72.0066 250.809 68.7249 249.381 66.0615C247.953 63.303 246.001 61.2103 243.526 59.7835C241.146 58.3567 238.432 57.6433 235.386 57.6433C232.244 57.6433 229.436 58.3567 226.961 59.7835C224.581 61.2103 222.676 63.303 221.248 66.0615C219.82 68.7249 219.106 72.0066 219.106 75.9065C219.106 79.8065 219.82 83.1833 221.248 86.0369C222.676 88.7954 224.581 90.8881 226.961 92.3149C229.436 93.7417 232.244 94.4551 235.386 94.4551ZM252.38 114.716V101.446L252.522 75.9065L251.094 50.3665V8.84624H278.227V114.716H252.38Z" fill="#021D41"/>
<path d="M344.522 36.0984C350.52 36.0984 355.947 37.335 360.802 39.8081C365.657 42.1861 369.466 45.8959 372.226 50.9373C375.082 55.9787 376.51 62.4945 376.51 70.4846V114.716H349.378V74.9078C349.378 69.3907 348.235 65.3957 345.951 62.9225C343.761 60.3542 340.667 59.0701 336.668 59.0701C333.812 59.0701 331.194 59.736 328.814 61.0676C326.434 62.3042 324.578 64.2542 323.245 66.9176C321.912 69.581 321.246 73.0529 321.246 77.3333V114.716H294.113V8.84624H321.246V59.3555L314.962 52.9348C317.913 47.3227 321.96 43.1374 327.1 40.3788C332.241 37.5252 338.049 36.0984 344.522 36.0984Z" fill="#021D41"/>
<path d="M442.384 36.0984C448.382 36.0984 453.808 37.335 458.664 39.8081C463.519 42.1861 467.327 45.8959 470.088 50.9373C472.944 55.9787 474.372 62.4945 474.372 70.4846V114.716H447.239V74.9078C447.239 69.3907 446.097 65.3957 443.812 62.9225C441.623 60.3542 438.528 59.0701 434.53 59.0701C431.674 59.0701 429.056 59.736 426.676 61.0676C424.296 62.3042 422.439 64.2542 421.106 66.9176C419.774 69.581 419.107 73.0529 419.107 77.3333V114.716H391.974V37.3825H417.822V59.3555L412.824 52.9348C415.775 47.3227 419.821 43.1374 424.962 40.3788C430.103 37.5252 435.91 36.0984 442.384 36.0984Z" fill="#021D41"/>
<path d="M537.104 114.716V100.305L535.248 96.738V70.1993C535.248 65.9188 533.915 62.6371 531.249 60.3542C528.679 57.9762 524.537 56.7872 518.825 56.7872C515.112 56.7872 511.352 57.4055 507.544 58.6421C503.736 59.7835 500.499 61.4006 497.833 63.4932L488.694 45.0873C493.073 42.2337 498.309 40.0459 504.402 38.524C510.59 36.9069 516.731 36.0984 522.824 36.0984C535.391 36.0984 545.101 38.9996 551.956 44.802C558.905 50.5092 562.38 59.4982 562.38 71.7688V114.716H537.104ZM514.256 116C508.067 116 502.831 114.954 498.547 112.861C494.263 110.768 490.979 107.915 488.694 104.3C486.504 100.686 485.409 96.6429 485.409 92.1722C485.409 87.4162 486.599 83.326 488.979 79.9016C491.455 76.3821 495.215 73.7187 500.261 71.9114C505.307 70.009 511.828 69.0578 519.825 69.0578H538.104V83.1833H523.538C519.158 83.1833 516.064 83.8967 514.256 85.3235C512.542 86.7503 511.685 88.6527 511.685 91.0307C511.685 93.4088 512.59 95.3112 514.398 96.738C516.207 98.1648 518.682 98.8782 521.824 98.8782C524.775 98.8782 527.441 98.1648 529.821 96.738C532.296 95.2161 534.105 92.9332 535.248 89.8893L538.961 99.877C537.533 105.204 534.724 109.246 530.535 112.005C526.441 114.668 521.015 116 514.256 116Z" fill="#021D41"/>
<path d="M607.213 114.716L651.339 14.8389H679.186L723.455 114.716H694.038L659.479 28.679H670.618L636.059 114.716H607.213ZM631.347 95.3112L638.63 74.4797H687.469L694.752 95.3112H631.347Z" fill="#021D41"/>
<path d="M775.883 114.716V100.305L774.026 96.738V70.1993C774.026 65.9188 772.694 62.6371 770.028 60.3542C767.457 57.9762 763.316 56.7872 757.604 56.7872C753.891 56.7872 750.131 57.4055 746.323 58.6421C742.514 59.7835 739.278 61.4006 736.612 63.4932L727.472 45.0873C731.852 42.2337 737.088 40.0459 743.181 38.524C749.369 36.9069 755.51 36.0984 761.602 36.0984C774.169 36.0984 783.88 38.9996 790.734 44.802C797.684 50.5092 801.159 59.4982 801.159 71.7688V114.716H775.883ZM753.034 116C746.846 116 741.61 114.954 737.326 112.861C733.042 110.768 729.757 107.915 727.472 104.3C725.283 100.686 724.188 96.6429 724.188 92.1722C724.188 87.4162 725.378 83.326 727.758 79.9016C730.233 76.3821 733.994 73.7187 739.04 71.9114C744.085 70.009 750.607 69.0578 758.604 69.0578H776.882V83.1833H762.316C757.937 83.1833 754.843 83.8967 753.034 85.3235C751.321 86.7503 750.464 88.6527 750.464 91.0307C750.464 93.4088 751.368 95.3112 753.177 96.738C754.986 98.1648 757.461 98.8782 760.603 98.8782C763.554 98.8782 766.22 98.1648 768.6 96.738C771.075 95.2161 772.884 92.9332 774.026 89.8893L777.739 99.877C776.311 105.204 773.503 109.246 769.314 112.005C765.22 114.668 759.794 116 753.034 116Z" fill="#021D41"/>
<path d="M844.847 116C838.278 116 831.852 115.239 825.568 113.717C819.38 112.195 814.382 110.293 810.574 108.01L818.714 89.4613C822.331 91.649 826.568 93.4088 831.423 94.7405C836.279 95.977 841.039 96.5953 845.704 96.5953C850.273 96.5953 853.415 96.1197 855.129 95.1685C856.938 94.2173 857.842 92.9332 857.842 91.3161C857.842 89.7942 856.985 88.7003 855.272 88.0344C853.653 87.2735 851.463 86.7028 848.703 86.3223C846.037 85.9418 843.086 85.5137 839.849 85.0381C836.612 84.5625 833.327 83.9442 829.995 83.1833C826.758 82.3272 823.76 81.0906 820.999 79.4736C818.333 77.7614 816.191 75.4785 814.572 72.6248C812.954 69.7712 812.145 66.1566 812.145 61.7811C812.145 56.8348 813.573 52.4592 816.429 48.6544C819.38 44.7544 823.664 41.7105 829.281 39.5228C834.898 37.2399 841.753 36.0984 849.845 36.0984C855.272 36.0984 860.746 36.6691 866.267 37.8106C871.884 38.8569 876.597 40.474 880.405 42.6618L872.265 61.0676C868.457 58.8799 864.649 57.4055 860.841 56.6445C857.033 55.7884 853.415 55.3604 849.988 55.3604C845.418 55.3604 842.181 55.8836 840.277 56.9299C838.468 57.9762 837.564 59.2603 837.564 60.7823C837.564 62.3042 838.373 63.4932 839.992 64.3493C841.61 65.1103 843.752 65.7286 846.418 66.2042C849.179 66.5847 852.177 67.0127 855.414 67.4883C858.651 67.8688 861.888 68.4871 865.125 69.3432C868.457 70.1993 871.456 71.4834 874.122 73.1956C876.883 74.8126 879.072 77.048 880.69 79.9016C882.309 82.6601 883.118 86.2271 883.118 90.6027C883.118 95.3587 881.643 99.6392 878.691 103.444C875.835 107.249 871.551 110.293 865.839 112.576C860.222 114.859 853.225 116 844.847 116Z" fill="#021D41"/>
<path d="M940.507 114.716V100.305L938.651 96.738V70.1993C938.651 65.9188 937.318 62.6371 934.652 60.3542C932.082 57.9762 927.941 56.7872 922.229 56.7872C918.516 56.7872 914.755 57.4055 910.947 58.6421C907.139 59.7835 903.902 61.4006 901.236 63.4932L892.097 45.0873C896.476 42.2337 901.712 40.0459 907.805 38.524C913.993 36.9069 920.134 36.0984 926.227 36.0984C938.794 36.0984 948.504 38.9996 955.359 44.802C962.309 50.5092 965.784 59.4982 965.784 71.7688V114.716H940.507ZM917.659 116C911.471 116 906.234 114.954 901.95 112.861C897.666 110.768 894.382 107.915 892.097 104.3C889.907 100.686 888.812 96.6429 888.812 92.1722C888.812 87.4162 890.002 83.326 892.383 79.9016C894.858 76.3821 898.618 73.7187 903.664 71.9114C908.71 70.009 915.231 69.0578 923.228 69.0578H941.507V83.1833H926.941C922.562 83.1833 919.468 83.8967 917.659 85.3235C915.945 86.7503 915.088 88.6527 915.088 91.0307C915.088 93.4088 915.993 95.3112 917.802 96.738C919.61 98.1648 922.086 98.8782 925.227 98.8782C928.179 98.8782 930.844 98.1648 933.224 96.738C935.7 95.2161 937.508 92.9332 938.651 89.8893L942.364 99.877C940.936 105.204 938.127 109.246 933.938 112.005C929.845 114.668 924.418 116 917.659 116Z" fill="#021D41"/>
<path d="M1028.61 114.716V100.305L1026.75 96.738V70.1993C1026.75 65.9188 1025.42 62.6371 1022.75 60.3542C1020.18 57.9762 1016.04 56.7872 1010.33 56.7872C1006.62 56.7872 1002.85 57.4055 999.047 58.6421C995.239 59.7835 992.002 61.4006 989.336 63.4932L980.197 45.0873C984.576 42.2337 989.812 40.0459 995.905 38.524C1002.09 36.9069 1008.23 36.0984 1014.33 36.0984C1026.89 36.0984 1036.6 38.9996 1043.46 44.802C1050.41 50.5092 1053.88 59.4982 1053.88 71.7688V114.716H1028.61ZM1005.76 116C999.57 116 994.334 114.954 990.05 112.861C985.766 110.768 982.482 107.915 980.197 104.3C978.007 100.686 976.912 96.6429 976.912 92.1722C976.912 87.4162 978.102 83.326 980.482 79.9016C982.958 76.3821 986.718 73.7187 991.764 71.9114C996.81 70.009 1003.33 69.0578 1011.33 69.0578H1029.61V83.1833H1015.04C1010.66 83.1833 1007.57 83.8967 1005.76 85.3235C1004.04 86.7503 1003.19 88.6527 1003.19 91.0307C1003.19 93.4088 1004.09 95.3112 1005.9 96.738C1007.71 98.1648 1010.19 98.8782 1013.33 98.8782C1016.28 98.8782 1018.94 98.1648 1021.32 96.738C1023.8 95.2161 1025.61 92.9332 1026.75 89.8893L1030.46 99.877C1029.04 105.204 1026.23 109.246 1022.04 112.005C1017.94 114.668 1012.52 116 1005.76 116Z" fill="#021D41"/>
<path d="M1119.85 36.0984C1125.85 36.0984 1131.27 37.335 1136.13 39.8081C1140.98 42.1861 1144.79 45.8959 1147.55 50.9373C1150.41 55.9787 1151.84 62.4945 1151.84 70.4846V114.716H1124.7V74.9078C1124.7 69.3907 1123.56 65.3957 1121.28 62.9225C1119.09 60.3542 1115.99 59.0701 1111.99 59.0701C1109.14 59.0701 1106.52 59.736 1104.14 61.0676C1101.76 62.3042 1099.9 64.2542 1098.57 66.9176C1097.24 69.581 1096.57 73.0529 1096.57 77.3333V114.716H1069.44V37.3825H1095.29V59.3555L1090.29 52.9348C1093.24 47.3227 1097.29 43.1374 1102.43 40.3788C1107.57 37.5252 1113.37 36.0984 1119.85 36.0984Z" fill="#021D41"/>
<path d="M1275.41 14.8389H1303.68V114.716H1275.41V14.8389ZM1236.85 114.716H1208.57V14.8389H1236.85V114.716ZM1277.4 75.7638H1234.85V52.3641H1277.4V75.7638Z" fill="#021D41"/>
<path d="M1368.04 114.716V100.305L1366.18 96.738V70.1993C1366.18 65.9188 1364.85 62.6371 1362.18 60.3542C1359.61 57.9762 1355.47 56.7872 1349.76 56.7872C1346.04 56.7872 1342.28 57.4055 1338.48 58.6421C1334.67 59.7835 1331.43 61.4006 1328.77 63.4932L1319.63 45.0873C1324.01 42.2337 1329.24 40.0459 1335.33 38.524C1341.52 36.9069 1347.66 36.0984 1353.76 36.0984C1366.32 36.0984 1376.03 38.9996 1382.89 44.802C1389.84 50.5092 1393.31 59.4982 1393.31 71.7688V114.716H1368.04ZM1345.19 116C1339 116 1333.76 114.954 1329.48 112.861C1325.2 110.768 1321.91 107.915 1319.63 104.3C1317.44 100.686 1316.34 96.6429 1316.34 92.1722C1316.34 87.4162 1317.53 83.326 1319.91 79.9016C1322.39 76.3821 1326.15 73.7187 1331.19 71.9114C1336.24 70.009 1342.76 69.0578 1350.76 69.0578H1369.04V83.1833H1354.47C1350.09 83.1833 1347 83.8967 1345.19 85.3235C1343.47 86.7503 1342.62 88.6527 1342.62 91.0307C1342.62 93.4088 1343.52 95.3112 1345.33 96.738C1347.14 98.1648 1349.61 98.8782 1352.76 98.8782C1355.71 98.8782 1358.37 98.1648 1360.75 96.738C1363.23 95.2161 1365.04 92.9332 1366.18 89.8893L1369.89 99.877C1368.46 105.204 1365.66 109.246 1361.47 112.005C1357.37 114.668 1351.95 116 1345.19 116Z" fill="#021D41"/>
<path d="M1408.87 114.716V37.3825H1436V114.716H1408.87ZM1422.43 28.8216C1417.48 28.8216 1413.49 27.4424 1410.44 24.6839C1407.39 21.9254 1405.87 18.501 1405.87 14.4108C1405.87 10.3206 1407.39 6.89627 1410.44 4.13776C1413.49 1.37925 1417.48 0 1422.43 0C1427.39 0 1431.38 1.33169 1434.43 3.99508C1437.48 6.56335 1439 9.89258 1439 13.9828C1439 18.2632 1437.48 21.8303 1434.43 24.6839C1431.48 27.4424 1427.48 28.8216 1422.43 28.8216Z" fill="#021D41"/>
</svg>
