<svg width="104" height="41" viewBox="0 0 104 41" fill="none" xmlns="http://www.w3.org/2000/svg">
<rect width="104" height="40.4586" rx="20.2293" fill="white" fill-opacity="0.6"/>
<mask id="mask0_3_2251" style="mask-type:luminance" maskUnits="userSpaceOnUse" x="16" y="8" width="72" height="25">
<path d="M88 8H16V32.4586H88V8Z" fill="white"/>
</mask>
<g mask="url(#mask0_3_2251)">
<path d="M16.7603 15.0217H20.4263V27.6651H16.7603V15.0217Z" fill="#01295C"/>
<path d="M30.8082 14.8342C32.375 14.8342 33.6363 15.3042 34.592 16.2443C35.5633 17.1843 36.0489 18.5787 36.0489 20.4274V27.6657H32.3829V20.9914C32.3829 19.9887 32.1635 19.2445 31.7248 18.7588C31.2861 18.2575 30.6517 18.0068 29.8213 18.0068C28.897 18.0068 28.1606 18.2966 27.6123 18.8763C27.0639 19.4403 26.7897 20.2864 26.7897 21.4144V27.6657H23.1237V15.0222H26.6252V16.5028C27.1109 15.9701 27.7141 15.5627 28.4347 15.2807C29.1555 14.9831 29.9467 14.8342 30.8082 14.8342Z" fill="#01295C"/>
<path d="M51.6831 10.2278V27.6654H48.1816V26.2082C47.2729 27.3049 45.9569 27.8532 44.2335 27.8532C43.0428 27.8532 41.9618 27.5869 40.9904 27.0544C40.0347 26.5216 39.2826 25.7617 38.7343 24.7747C38.186 23.7878 37.9119 22.6439 37.9119 21.3436C37.9119 20.0432 38.186 18.8995 38.7343 17.9125C39.2826 16.9254 40.0347 16.1656 40.9904 15.6329C41.9618 15.1002 43.0428 14.8339 44.2335 14.8339C45.8472 14.8339 47.1085 15.3431 48.0171 16.3614V10.2278H51.6831ZM44.868 24.8453C45.7924 24.8453 46.5601 24.5319 47.1711 23.9052C47.7821 23.2628 48.0876 22.4089 48.0876 21.3436C48.0876 20.2782 47.7821 19.4322 47.1711 18.8055C46.5601 18.1632 45.7924 17.842 44.868 17.842C43.9279 17.842 43.1524 18.1632 42.5414 18.8055C41.9304 19.4322 41.625 20.2782 41.625 21.3436C41.625 22.4089 41.9304 23.2628 42.5414 23.9052C43.1524 24.5319 43.9279 24.8453 44.868 24.8453Z" fill="#01295C"/>
<path d="M54.3712 15.0217H58.0373V27.6651H54.3712V15.0217Z" fill="#01295C"/>
<path d="M18.5526 8.07642L21.1603 10.6842L18.5526 13.2919L15.9448 10.6842L18.5526 8.07642Z" fill="#01295C"/>
<path d="M56.2254 8.07642L58.8332 10.6842L56.2254 13.2919L53.6177 10.6842L56.2254 8.07642Z" fill="#01295C"/>
<path d="M61.5984 17.8215H59.8134V15.0477H61.5984V13.5522C61.5984 12.3301 61.9199 11.4136 62.5631 10.8025C63.2064 10.1754 64.147 9.86182 65.3852 9.86182H67.7008V12.6357H65.1681V15.0477H67.7008V17.8215H65.1681V27.7108H61.5984V17.8215Z" fill="#FF681E"/>
<path d="M73.2323 27.7108C72.0101 27.7108 71.1096 27.4134 70.5307 26.8184C69.968 26.2233 69.6865 25.3631 69.6865 24.2374V9.86182H73.2563V24.9369H74.8482V27.7108H73.2323Z" fill="#FF681E"/>
<path d="M84.5898 15.0479H87.9185L83.0462 29.6647C82.7245 30.6456 82.2662 31.3693 81.6713 31.8355C81.0924 32.3019 80.2562 32.5351 79.1627 32.5351H76.9437V29.7613H79.3317L79.7658 28.3623L75.3276 15.0479H78.8734L80.7307 20.9573L81.6471 24.6236H81.7919L82.7326 20.9573L84.5898 15.0479Z" fill="#FF681E"/>
</g>
</svg>
